<mxfile host="65bd71144e">
    <diagram id="UeBaoMJ2nra2DVKrJJvA" name="Page-1">
        <mxGraphModel dx="1081" dy="790" grid="1" gridSize="10" guides="1" tooltips="1" connect="1" arrows="1" fold="1" page="1" pageScale="1" pageWidth="827" pageHeight="1169" math="0" shadow="0">
            <root>
                <mxCell id="0"/>
                <mxCell id="1" parent="0"/>
                <mxCell id="15" value="" style="rounded=0;whiteSpace=wrap;html=1;" parent="1" vertex="1">
                    <mxGeometry x="70" y="90" width="330" height="390" as="geometry"/>
                </mxCell>
                <mxCell id="2" value="x64 H/W" style="rounded=1;whiteSpace=wrap;html=1;" parent="1" vertex="1">
                    <mxGeometry x="90" y="420" width="290" height="40" as="geometry"/>
                </mxCell>
                <mxCell id="3" value="Hypervisor: Hyper-V" style="rounded=1;whiteSpace=wrap;html=1;" parent="1" vertex="1">
                    <mxGeometry x="90" y="370" width="290" height="40" as="geometry"/>
                </mxCell>
                <mxCell id="11" style="edgeStyle=none;html=1;exitX=1;exitY=0.5;exitDx=0;exitDy=0;entryX=0;entryY=0.5;entryDx=0;entryDy=0;startArrow=none;" parent="1" source="12" target="5" edge="1">
                    <mxGeometry relative="1" as="geometry"/>
                </mxCell>
                <mxCell id="4" value="Windows 10" style="rounded=1;whiteSpace=wrap;html=1;" parent="1" vertex="1">
                    <mxGeometry x="90" y="290" width="120" height="40" as="geometry"/>
                </mxCell>
                <mxCell id="5" value="Ubuntu 12.04 LTS" style="rounded=1;whiteSpace=wrap;html=1;" parent="1" vertex="1">
                    <mxGeometry x="260" y="290" width="120" height="40" as="geometry"/>
                </mxCell>
                <mxCell id="7" value="Emulator : bochs" style="rounded=1;whiteSpace=wrap;html=1;" parent="1" vertex="1">
                    <mxGeometry x="260" y="240" width="120" height="40" as="geometry"/>
                </mxCell>
                <mxCell id="8" value="Emulated x86 H/W" style="rounded=1;whiteSpace=wrap;html=1;" parent="1" vertex="1">
                    <mxGeometry x="260" y="190" width="120" height="40" as="geometry"/>
                </mxCell>
                <mxCell id="9" value="PintOS" style="rounded=1;whiteSpace=wrap;html=1;" parent="1" vertex="1">
                    <mxGeometry x="260" y="110" width="120" height="40" as="geometry"/>
                </mxCell>
                <mxCell id="12" value="ssh" style="text;html=1;align=center;verticalAlign=middle;resizable=0;points=[];autosize=1;strokeColor=none;fillColor=none;" parent="1" vertex="1">
                    <mxGeometry x="220" y="300" width="30" height="20" as="geometry"/>
                </mxCell>
                <mxCell id="18" value="" style="edgeStyle=none;html=1;exitX=1;exitY=0.5;exitDx=0;exitDy=0;entryX=0;entryY=0.5;entryDx=0;entryDy=0;endArrow=none;" parent="1" source="4" target="12" edge="1">
                    <mxGeometry relative="1" as="geometry">
                        <mxPoint x="210" y="310" as="sourcePoint"/>
                        <mxPoint x="260" y="310" as="targetPoint"/>
                    </mxGeometry>
                </mxCell>
                <mxCell id="20" value="" style="endArrow=none;html=1;entryX=0.999;entryY=0.344;entryDx=0;entryDy=0;entryPerimeter=0;dashed=1;" parent="1" edge="1">
                    <mxGeometry width="50" height="50" relative="1" as="geometry">
                        <mxPoint x="70.33000000000011" y="350" as="sourcePoint"/>
                        <mxPoint x="400.00000000000006" y="350.4" as="targetPoint"/>
                    </mxGeometry>
                </mxCell>
                <mxCell id="21" value="" style="endArrow=none;html=1;entryX=0.999;entryY=0.344;entryDx=0;entryDy=0;entryPerimeter=0;dashed=1;" parent="1" edge="1">
                    <mxGeometry width="50" height="50" relative="1" as="geometry">
                        <mxPoint x="240" y="170" as="sourcePoint"/>
                        <mxPoint x="399.84000000000003" y="170.39999999999998" as="targetPoint"/>
                    </mxGeometry>
                </mxCell>
                <mxCell id="22" value="" style="endArrow=none;html=1;entryX=0.5;entryY=0;entryDx=0;entryDy=0;" parent="1" target="15" edge="1">
                    <mxGeometry width="50" height="50" relative="1" as="geometry">
                        <mxPoint x="235" y="350" as="sourcePoint"/>
                        <mxPoint x="440" y="300" as="targetPoint"/>
                    </mxGeometry>
                </mxCell>
            </root>
        </mxGraphModel>
    </diagram>
</mxfile>